ISO-10303-21;
HEADER;
/* Generated by software containing ST-Developer
 * from STEP Tools, Inc. (www.steptools.com) 
 */

FILE_DESCRIPTION(
/* description */ (''),
/* implementation_level */ '2;1');

FILE_NAME(
/* name */ '703048 3.7V 1200mAh Battery.step',
/* time_stamp */ '2026-04-25T16:53:58+02:00',
/* author */ (''),
/* organization */ (''),
/* preprocessor_version */ 'ST-DEVELOPER v20.1',
/* originating_system */ 'Autodesk Translation Framework v15.8.0.0',
/* authorisation */ '');

FILE_SCHEMA (('AUTOMOTIVE_DESIGN { 1 0 10303 214 3 1 1 }'));
ENDSEC;

DATA;
#10=MECHANICAL_DESIGN_GEOMETRIC_PRESENTATION_REPRESENTATION('',(#13,#14),
#614);
#11=SHAPE_REPRESENTATION_RELATIONSHIP('SRR','None',#621,#12);
#12=ADVANCED_BREP_SHAPE_REPRESENTATION('',(#15,#16),#613);
#13=STYLED_ITEM('',(#631),#15);
#14=STYLED_ITEM('',(#632),#16);
#15=MANIFOLD_SOLID_BREP('Body2',#353);
#16=MANIFOLD_SOLID_BREP('Body3',#354);
#17=CYLINDRICAL_SURFACE('',#374,2.);
#18=CYLINDRICAL_SURFACE('',#377,2.);
#19=CYLINDRICAL_SURFACE('',#379,2.);
#20=CYLINDRICAL_SURFACE('',#382,2.);
#21=CYLINDRICAL_SURFACE('',#391,2.);
#22=CYLINDRICAL_SURFACE('',#394,2.);
#23=CYLINDRICAL_SURFACE('',#397,2.);
#24=CYLINDRICAL_SURFACE('',#402,2.);
#25=FACE_OUTER_BOUND('',#45,.T.);
#26=FACE_OUTER_BOUND('',#46,.T.);
#27=FACE_OUTER_BOUND('',#47,.T.);
#28=FACE_OUTER_BOUND('',#48,.T.);
#29=FACE_OUTER_BOUND('',#49,.T.);
#30=FACE_OUTER_BOUND('',#50,.T.);
#31=FACE_OUTER_BOUND('',#51,.T.);
#32=FACE_OUTER_BOUND('',#52,.T.);
#33=FACE_OUTER_BOUND('',#53,.T.);
#34=FACE_OUTER_BOUND('',#54,.T.);
#35=FACE_OUTER_BOUND('',#55,.T.);
#36=FACE_OUTER_BOUND('',#56,.T.);
#37=FACE_OUTER_BOUND('',#57,.T.);
#38=FACE_OUTER_BOUND('',#58,.T.);
#39=FACE_OUTER_BOUND('',#59,.T.);
#40=FACE_OUTER_BOUND('',#60,.T.);
#41=FACE_OUTER_BOUND('',#61,.T.);
#42=FACE_OUTER_BOUND('',#62,.T.);
#43=FACE_OUTER_BOUND('',#63,.T.);
#44=FACE_OUTER_BOUND('',#64,.T.);
#45=EDGE_LOOP('',(#225,#226,#227,#228,#229,#230,#231,#232));
#46=EDGE_LOOP('',(#233,#234,#235,#236));
#47=EDGE_LOOP('',(#237,#238,#239,#240));
#48=EDGE_LOOP('',(#241,#242,#243,#244));
#49=EDGE_LOOP('',(#245,#246,#247,#248));
#50=EDGE_LOOP('',(#249,#250,#251,#252));
#51=EDGE_LOOP('',(#253,#254,#255,#256));
#52=EDGE_LOOP('',(#257,#258,#259,#260));
#53=EDGE_LOOP('',(#261,#262,#263,#264));
#54=EDGE_LOOP('',(#265,#266,#267,#268,#269,#270,#271,#272));
#55=EDGE_LOOP('',(#273,#274,#275,#276,#277,#278,#279,#280));
#56=EDGE_LOOP('',(#281,#282,#283,#284));
#57=EDGE_LOOP('',(#285,#286,#287,#288));
#58=EDGE_LOOP('',(#289,#290,#291,#292));
#59=EDGE_LOOP('',(#293,#294,#295,#296));
#60=EDGE_LOOP('',(#297,#298,#299,#300));
#61=EDGE_LOOP('',(#301,#302,#303,#304,#305,#306,#307,#308));
#62=EDGE_LOOP('',(#309,#310,#311,#312));
#63=EDGE_LOOP('',(#313,#314,#315,#316));
#64=EDGE_LOOP('',(#317,#318,#319,#320));
#65=LINE('',#516,#97);
#66=LINE('',#520,#98);
#67=LINE('',#524,#99);
#68=LINE('',#527,#100);
#69=LINE('',#531,#101);
#70=LINE('',#532,#102);
#71=LINE('',#533,#103);
#72=LINE('',#537,#104);
#73=LINE('',#540,#105);
#74=LINE('',#541,#106);
#75=LINE('',#545,#107);
#76=LINE('',#549,#108);
#77=LINE('',#552,#109);
#78=LINE('',#553,#110);
#79=LINE('',#557,#111);
#80=LINE('',#559,#112);
#81=LINE('',#566,#113);
#82=LINE('',#570,#114);
#83=LINE('',#574,#115);
#84=LINE('',#577,#116);
#85=LINE('',#580,#117);
#86=LINE('',#583,#118);
#87=LINE('',#586,#119);
#88=LINE('',#587,#120);
#89=LINE('',#590,#121);
#90=LINE('',#594,#122);
#91=LINE('',#595,#123);
#92=LINE('',#598,#124);
#93=LINE('',#601,#125);
#94=LINE('',#603,#126);
#95=LINE('',#606,#127);
#96=LINE('',#609,#128);
#97=VECTOR('',#410,10.);
#98=VECTOR('',#413,10.);
#99=VECTOR('',#416,10.);
#100=VECTOR('',#419,10.);
#101=VECTOR('',#422,10.);
#102=VECTOR('',#423,10.);
#103=VECTOR('',#424,10.);
#104=VECTOR('',#429,10.);
#105=VECTOR('',#432,10.);
#106=VECTOR('',#433,10.);
#107=VECTOR('',#438,10.);
#108=VECTOR('',#443,10.);
#109=VECTOR('',#446,10.);
#110=VECTOR('',#447,10.);
#111=VECTOR('',#452,10.);
#112=VECTOR('',#455,10.);
#113=VECTOR('',#462,10.);
#114=VECTOR('',#465,10.);
#115=VECTOR('',#468,10.);
#116=VECTOR('',#471,10.);
#117=VECTOR('',#474,10.);
#118=VECTOR('',#477,10.);
#119=VECTOR('',#480,10.);
#120=VECTOR('',#481,10.);
#121=VECTOR('',#484,10.);
#122=VECTOR('',#489,10.);
#123=VECTOR('',#490,10.);
#124=VECTOR('',#493,10.);
#125=VECTOR('',#496,10.);
#126=VECTOR('',#499,10.);
#127=VECTOR('',#502,10.);
#128=VECTOR('',#507,10.);
#129=CIRCLE('',#369,2.);
#130=CIRCLE('',#370,2.);
#131=CIRCLE('',#371,2.);
#132=CIRCLE('',#372,2.);
#133=CIRCLE('',#375,2.);
#134=CIRCLE('',#378,2.);
#135=CIRCLE('',#380,2.);
#136=CIRCLE('',#383,2.);
#137=CIRCLE('',#387,2.);
#138=CIRCLE('',#388,2.);
#139=CIRCLE('',#389,2.);
#140=CIRCLE('',#390,2.);
#141=CIRCLE('',#392,2.);
#142=CIRCLE('',#395,2.);
#143=CIRCLE('',#398,2.);
#144=CIRCLE('',#400,2.);
#145=VERTEX_POINT('',#512);
#146=VERTEX_POINT('',#513);
#147=VERTEX_POINT('',#515);
#148=VERTEX_POINT('',#517);
#149=VERTEX_POINT('',#519);
#150=VERTEX_POINT('',#521);
#151=VERTEX_POINT('',#523);
#152=VERTEX_POINT('',#525);
#153=VERTEX_POINT('',#529);
#154=VERTEX_POINT('',#530);
#155=VERTEX_POINT('',#535);
#156=VERTEX_POINT('',#539);
#157=VERTEX_POINT('',#543);
#158=VERTEX_POINT('',#547);
#159=VERTEX_POINT('',#551);
#160=VERTEX_POINT('',#555);
#161=VERTEX_POINT('',#562);
#162=VERTEX_POINT('',#563);
#163=VERTEX_POINT('',#565);
#164=VERTEX_POINT('',#567);
#165=VERTEX_POINT('',#569);
#166=VERTEX_POINT('',#571);
#167=VERTEX_POINT('',#573);
#168=VERTEX_POINT('',#575);
#169=VERTEX_POINT('',#579);
#170=VERTEX_POINT('',#581);
#171=VERTEX_POINT('',#585);
#172=VERTEX_POINT('',#589);
#173=VERTEX_POINT('',#593);
#174=VERTEX_POINT('',#597);
#175=VERTEX_POINT('',#599);
#176=VERTEX_POINT('',#604);
#177=EDGE_CURVE('',#145,#146,#129,.T.);
#178=EDGE_CURVE('',#147,#145,#65,.T.);
#179=EDGE_CURVE('',#148,#147,#130,.T.);
#180=EDGE_CURVE('',#148,#149,#66,.T.);
#181=EDGE_CURVE('',#150,#149,#131,.T.);
#182=EDGE_CURVE('',#151,#150,#67,.T.);
#183=EDGE_CURVE('',#152,#151,#132,.T.);
#184=EDGE_CURVE('',#146,#152,#68,.T.);
#185=EDGE_CURVE('',#153,#154,#69,.T.);
#186=EDGE_CURVE('',#151,#153,#70,.T.);
#187=EDGE_CURVE('',#154,#150,#71,.T.);
#188=EDGE_CURVE('',#154,#155,#133,.T.);
#189=EDGE_CURVE('',#149,#155,#72,.T.);
#190=EDGE_CURVE('',#155,#156,#73,.T.);
#191=EDGE_CURVE('',#156,#148,#74,.T.);
#192=EDGE_CURVE('',#157,#153,#134,.T.);
#193=EDGE_CURVE('',#157,#152,#75,.T.);
#194=EDGE_CURVE('',#156,#158,#135,.T.);
#195=EDGE_CURVE('',#147,#158,#76,.T.);
#196=EDGE_CURVE('',#158,#159,#77,.T.);
#197=EDGE_CURVE('',#159,#145,#78,.T.);
#198=EDGE_CURVE('',#159,#160,#136,.T.);
#199=EDGE_CURVE('',#146,#160,#79,.T.);
#200=EDGE_CURVE('',#160,#157,#80,.T.);
#201=EDGE_CURVE('',#161,#162,#137,.T.);
#202=EDGE_CURVE('',#163,#161,#81,.T.);
#203=EDGE_CURVE('',#164,#163,#138,.T.);
#204=EDGE_CURVE('',#165,#164,#82,.T.);
#205=EDGE_CURVE('',#166,#165,#139,.T.);
#206=EDGE_CURVE('',#167,#166,#83,.T.);
#207=EDGE_CURVE('',#168,#167,#140,.T.);
#208=EDGE_CURVE('',#162,#168,#84,.T.);
#209=EDGE_CURVE('',#165,#169,#85,.T.);
#210=EDGE_CURVE('',#169,#170,#141,.T.);
#211=EDGE_CURVE('',#170,#166,#86,.T.);
#212=EDGE_CURVE('',#171,#164,#87,.T.);
#213=EDGE_CURVE('',#171,#169,#88,.T.);
#214=EDGE_CURVE('',#163,#172,#89,.T.);
#215=EDGE_CURVE('',#172,#171,#142,.T.);
#216=EDGE_CURVE('',#173,#161,#90,.T.);
#217=EDGE_CURVE('',#173,#172,#91,.T.);
#218=EDGE_CURVE('',#167,#174,#92,.T.);
#219=EDGE_CURVE('',#174,#175,#143,.T.);
#220=EDGE_CURVE('',#175,#168,#93,.T.);
#221=EDGE_CURVE('',#170,#174,#94,.T.);
#222=EDGE_CURVE('',#176,#173,#144,.T.);
#223=EDGE_CURVE('',#175,#176,#95,.T.);
#224=EDGE_CURVE('',#162,#176,#96,.T.);
#225=ORIENTED_EDGE('',*,*,#177,.F.);
#226=ORIENTED_EDGE('',*,*,#178,.F.);
#227=ORIENTED_EDGE('',*,*,#179,.F.);
#228=ORIENTED_EDGE('',*,*,#180,.T.);
#229=ORIENTED_EDGE('',*,*,#181,.F.);
#230=ORIENTED_EDGE('',*,*,#182,.F.);
#231=ORIENTED_EDGE('',*,*,#183,.F.);
#232=ORIENTED_EDGE('',*,*,#184,.F.);
#233=ORIENTED_EDGE('',*,*,#185,.F.);
#234=ORIENTED_EDGE('',*,*,#186,.F.);
#235=ORIENTED_EDGE('',*,*,#182,.T.);
#236=ORIENTED_EDGE('',*,*,#187,.F.);
#237=ORIENTED_EDGE('',*,*,#188,.F.);
#238=ORIENTED_EDGE('',*,*,#187,.T.);
#239=ORIENTED_EDGE('',*,*,#181,.T.);
#240=ORIENTED_EDGE('',*,*,#189,.T.);
#241=ORIENTED_EDGE('',*,*,#190,.F.);
#242=ORIENTED_EDGE('',*,*,#189,.F.);
#243=ORIENTED_EDGE('',*,*,#180,.F.);
#244=ORIENTED_EDGE('',*,*,#191,.F.);
#245=ORIENTED_EDGE('',*,*,#192,.F.);
#246=ORIENTED_EDGE('',*,*,#193,.T.);
#247=ORIENTED_EDGE('',*,*,#183,.T.);
#248=ORIENTED_EDGE('',*,*,#186,.T.);
#249=ORIENTED_EDGE('',*,*,#194,.F.);
#250=ORIENTED_EDGE('',*,*,#191,.T.);
#251=ORIENTED_EDGE('',*,*,#179,.T.);
#252=ORIENTED_EDGE('',*,*,#195,.T.);
#253=ORIENTED_EDGE('',*,*,#196,.F.);
#254=ORIENTED_EDGE('',*,*,#195,.F.);
#255=ORIENTED_EDGE('',*,*,#178,.T.);
#256=ORIENTED_EDGE('',*,*,#197,.F.);
#257=ORIENTED_EDGE('',*,*,#198,.F.);
#258=ORIENTED_EDGE('',*,*,#197,.T.);
#259=ORIENTED_EDGE('',*,*,#177,.T.);
#260=ORIENTED_EDGE('',*,*,#199,.T.);
#261=ORIENTED_EDGE('',*,*,#200,.F.);
#262=ORIENTED_EDGE('',*,*,#199,.F.);
#263=ORIENTED_EDGE('',*,*,#184,.T.);
#264=ORIENTED_EDGE('',*,*,#193,.F.);
#265=ORIENTED_EDGE('',*,*,#194,.T.);
#266=ORIENTED_EDGE('',*,*,#196,.T.);
#267=ORIENTED_EDGE('',*,*,#198,.T.);
#268=ORIENTED_EDGE('',*,*,#200,.T.);
#269=ORIENTED_EDGE('',*,*,#192,.T.);
#270=ORIENTED_EDGE('',*,*,#185,.T.);
#271=ORIENTED_EDGE('',*,*,#188,.T.);
#272=ORIENTED_EDGE('',*,*,#190,.T.);
#273=ORIENTED_EDGE('',*,*,#201,.F.);
#274=ORIENTED_EDGE('',*,*,#202,.F.);
#275=ORIENTED_EDGE('',*,*,#203,.F.);
#276=ORIENTED_EDGE('',*,*,#204,.F.);
#277=ORIENTED_EDGE('',*,*,#205,.F.);
#278=ORIENTED_EDGE('',*,*,#206,.F.);
#279=ORIENTED_EDGE('',*,*,#207,.F.);
#280=ORIENTED_EDGE('',*,*,#208,.F.);
#281=ORIENTED_EDGE('',*,*,#205,.T.);
#282=ORIENTED_EDGE('',*,*,#209,.T.);
#283=ORIENTED_EDGE('',*,*,#210,.T.);
#284=ORIENTED_EDGE('',*,*,#211,.T.);
#285=ORIENTED_EDGE('',*,*,#204,.T.);
#286=ORIENTED_EDGE('',*,*,#212,.F.);
#287=ORIENTED_EDGE('',*,*,#213,.T.);
#288=ORIENTED_EDGE('',*,*,#209,.F.);
#289=ORIENTED_EDGE('',*,*,#203,.T.);
#290=ORIENTED_EDGE('',*,*,#214,.T.);
#291=ORIENTED_EDGE('',*,*,#215,.T.);
#292=ORIENTED_EDGE('',*,*,#212,.T.);
#293=ORIENTED_EDGE('',*,*,#202,.T.);
#294=ORIENTED_EDGE('',*,*,#216,.F.);
#295=ORIENTED_EDGE('',*,*,#217,.T.);
#296=ORIENTED_EDGE('',*,*,#214,.F.);
#297=ORIENTED_EDGE('',*,*,#207,.T.);
#298=ORIENTED_EDGE('',*,*,#218,.T.);
#299=ORIENTED_EDGE('',*,*,#219,.T.);
#300=ORIENTED_EDGE('',*,*,#220,.T.);
#301=ORIENTED_EDGE('',*,*,#219,.F.);
#302=ORIENTED_EDGE('',*,*,#221,.F.);
#303=ORIENTED_EDGE('',*,*,#210,.F.);
#304=ORIENTED_EDGE('',*,*,#213,.F.);
#305=ORIENTED_EDGE('',*,*,#215,.F.);
#306=ORIENTED_EDGE('',*,*,#217,.F.);
#307=ORIENTED_EDGE('',*,*,#222,.F.);
#308=ORIENTED_EDGE('',*,*,#223,.F.);
#309=ORIENTED_EDGE('',*,*,#206,.T.);
#310=ORIENTED_EDGE('',*,*,#211,.F.);
#311=ORIENTED_EDGE('',*,*,#221,.T.);
#312=ORIENTED_EDGE('',*,*,#218,.F.);
#313=ORIENTED_EDGE('',*,*,#201,.T.);
#314=ORIENTED_EDGE('',*,*,#224,.T.);
#315=ORIENTED_EDGE('',*,*,#222,.T.);
#316=ORIENTED_EDGE('',*,*,#216,.T.);
#317=ORIENTED_EDGE('',*,*,#208,.T.);
#318=ORIENTED_EDGE('',*,*,#220,.F.);
#319=ORIENTED_EDGE('',*,*,#223,.T.);
#320=ORIENTED_EDGE('',*,*,#224,.F.);
#321=PLANE('',#368);
#322=PLANE('',#373);
#323=PLANE('',#376);
#324=PLANE('',#381);
#325=PLANE('',#384);
#326=PLANE('',#385);
#327=PLANE('',#386);
#328=PLANE('',#393);
#329=PLANE('',#396);
#330=PLANE('',#399);
#331=PLANE('',#401);
#332=PLANE('',#403);
#333=ADVANCED_FACE('',(#25),#321,.T.);
#334=ADVANCED_FACE('',(#26),#322,.T.);
#335=ADVANCED_FACE('',(#27),#17,.T.);
#336=ADVANCED_FACE('',(#28),#323,.T.);
#337=ADVANCED_FACE('',(#29),#18,.T.);
#338=ADVANCED_FACE('',(#30),#19,.T.);
#339=ADVANCED_FACE('',(#31),#324,.T.);
#340=ADVANCED_FACE('',(#32),#20,.T.);
#341=ADVANCED_FACE('',(#33),#325,.T.);
#342=ADVANCED_FACE('',(#34),#326,.T.);
#343=ADVANCED_FACE('',(#35),#327,.F.);
#344=ADVANCED_FACE('',(#36),#21,.T.);
#345=ADVANCED_FACE('',(#37),#328,.T.);
#346=ADVANCED_FACE('',(#38),#22,.T.);
#347=ADVANCED_FACE('',(#39),#329,.T.);
#348=ADVANCED_FACE('',(#40),#23,.T.);
#349=ADVANCED_FACE('',(#41),#330,.T.);
#350=ADVANCED_FACE('',(#42),#331,.T.);
#351=ADVANCED_FACE('',(#43),#24,.T.);
#352=ADVANCED_FACE('',(#44),#332,.T.);
#353=CLOSED_SHELL('',(#333,#334,#335,#336,#337,#338,#339,#340,#341,#342));
#354=CLOSED_SHELL('',(#343,#344,#345,#346,#347,#348,#349,#350,#351,#352));
#355=DERIVED_UNIT_ELEMENT(#357,1.);
#356=DERIVED_UNIT_ELEMENT(#616,-3.);
#357=(
MASS_UNIT()
NAMED_UNIT(*)
SI_UNIT(.KILO.,.GRAM.)
);
#358=DERIVED_UNIT((#355,#356));
#359=MEASURE_REPRESENTATION_ITEM('density measure',
POSITIVE_RATIO_MEASURE(7850.),#358);
#360=PROPERTY_DEFINITION_REPRESENTATION(#365,#362);
#361=PROPERTY_DEFINITION_REPRESENTATION(#366,#363);
#362=REPRESENTATION('material name',(#364),#613);
#363=REPRESENTATION('density',(#359),#613);
#364=DESCRIPTIVE_REPRESENTATION_ITEM('Steel','Steel');
#365=PROPERTY_DEFINITION('material property','material name',#623);
#366=PROPERTY_DEFINITION('material property','density of part',#623);
#367=AXIS2_PLACEMENT_3D('',#510,#404,#405);
#368=AXIS2_PLACEMENT_3D('',#511,#406,#407);
#369=AXIS2_PLACEMENT_3D('',#514,#408,#409);
#370=AXIS2_PLACEMENT_3D('',#518,#411,#412);
#371=AXIS2_PLACEMENT_3D('',#522,#414,#415);
#372=AXIS2_PLACEMENT_3D('',#526,#417,#418);
#373=AXIS2_PLACEMENT_3D('',#528,#420,#421);
#374=AXIS2_PLACEMENT_3D('',#534,#425,#426);
#375=AXIS2_PLACEMENT_3D('',#536,#427,#428);
#376=AXIS2_PLACEMENT_3D('',#538,#430,#431);
#377=AXIS2_PLACEMENT_3D('',#542,#434,#435);
#378=AXIS2_PLACEMENT_3D('',#544,#436,#437);
#379=AXIS2_PLACEMENT_3D('',#546,#439,#440);
#380=AXIS2_PLACEMENT_3D('',#548,#441,#442);
#381=AXIS2_PLACEMENT_3D('',#550,#444,#445);
#382=AXIS2_PLACEMENT_3D('',#554,#448,#449);
#383=AXIS2_PLACEMENT_3D('',#556,#450,#451);
#384=AXIS2_PLACEMENT_3D('',#558,#453,#454);
#385=AXIS2_PLACEMENT_3D('',#560,#456,#457);
#386=AXIS2_PLACEMENT_3D('',#561,#458,#459);
#387=AXIS2_PLACEMENT_3D('',#564,#460,#461);
#388=AXIS2_PLACEMENT_3D('',#568,#463,#464);
#389=AXIS2_PLACEMENT_3D('',#572,#466,#467);
#390=AXIS2_PLACEMENT_3D('',#576,#469,#470);
#391=AXIS2_PLACEMENT_3D('',#578,#472,#473);
#392=AXIS2_PLACEMENT_3D('',#582,#475,#476);
#393=AXIS2_PLACEMENT_3D('',#584,#478,#479);
#394=AXIS2_PLACEMENT_3D('',#588,#482,#483);
#395=AXIS2_PLACEMENT_3D('',#591,#485,#486);
#396=AXIS2_PLACEMENT_3D('',#592,#487,#488);
#397=AXIS2_PLACEMENT_3D('',#596,#491,#492);
#398=AXIS2_PLACEMENT_3D('',#600,#494,#495);
#399=AXIS2_PLACEMENT_3D('',#602,#497,#498);
#400=AXIS2_PLACEMENT_3D('',#605,#500,#501);
#401=AXIS2_PLACEMENT_3D('',#607,#503,#504);
#402=AXIS2_PLACEMENT_3D('',#608,#505,#506);
#403=AXIS2_PLACEMENT_3D('',#610,#508,#509);
#404=DIRECTION('axis',(0.,0.,1.));
#405=DIRECTION('refdir',(1.,0.,0.));
#406=DIRECTION('center_axis',(-1.,0.,0.));
#407=DIRECTION('ref_axis',(0.,-1.,0.));
#408=DIRECTION('center_axis',(1.,0.,0.));
#409=DIRECTION('ref_axis',(0.,0.707106781186547,-0.707106781186548));
#410=DIRECTION('',(0.,1.,0.));
#411=DIRECTION('center_axis',(1.,0.,0.));
#412=DIRECTION('ref_axis',(0.,-0.707106781186547,-0.707106781186548));
#413=DIRECTION('',(0.,0.,1.));
#414=DIRECTION('center_axis',(1.,0.,0.));
#415=DIRECTION('ref_axis',(0.,-0.707106781186547,0.707106781186548));
#416=DIRECTION('',(0.,-1.,0.));
#417=DIRECTION('center_axis',(1.,0.,0.));
#418=DIRECTION('ref_axis',(0.,0.707106781186547,0.707106781186548));
#419=DIRECTION('',(0.,0.,1.));
#420=DIRECTION('center_axis',(0.,0.,1.));
#421=DIRECTION('ref_axis',(1.,0.,0.));
#422=DIRECTION('',(0.,-1.,0.));
#423=DIRECTION('',(1.,0.,0.));
#424=DIRECTION('',(-1.,0.,0.));
#425=DIRECTION('center_axis',(1.,0.,0.));
#426=DIRECTION('ref_axis',(0.,-0.707106781186547,0.707106781186548));
#427=DIRECTION('center_axis',(1.,0.,0.));
#428=DIRECTION('ref_axis',(0.,-0.707106781186547,0.707106781186548));
#429=DIRECTION('',(1.,0.,0.));
#430=DIRECTION('center_axis',(0.,-1.,0.));
#431=DIRECTION('ref_axis',(1.,0.,0.));
#432=DIRECTION('',(0.,0.,-1.));
#433=DIRECTION('',(-1.,0.,0.));
#434=DIRECTION('center_axis',(-1.,0.,0.));
#435=DIRECTION('ref_axis',(0.,0.707106781186547,0.707106781186548));
#436=DIRECTION('center_axis',(1.,0.,0.));
#437=DIRECTION('ref_axis',(0.,0.707106781186547,0.707106781186548));
#438=DIRECTION('',(-1.,0.,0.));
#439=DIRECTION('center_axis',(-1.,0.,0.));
#440=DIRECTION('ref_axis',(0.,-0.707106781186547,-0.707106781186548));
#441=DIRECTION('center_axis',(1.,0.,0.));
#442=DIRECTION('ref_axis',(0.,-0.707106781186547,-0.707106781186548));
#443=DIRECTION('',(1.,0.,0.));
#444=DIRECTION('center_axis',(0.,0.,-1.));
#445=DIRECTION('ref_axis',(-1.,0.,0.));
#446=DIRECTION('',(0.,1.,0.));
#447=DIRECTION('',(-1.,0.,0.));
#448=DIRECTION('center_axis',(1.,0.,0.));
#449=DIRECTION('ref_axis',(0.,0.707106781186547,-0.707106781186548));
#450=DIRECTION('center_axis',(1.,0.,0.));
#451=DIRECTION('ref_axis',(0.,0.707106781186547,-0.707106781186548));
#452=DIRECTION('',(1.,0.,0.));
#453=DIRECTION('center_axis',(0.,1.,0.));
#454=DIRECTION('ref_axis',(-1.,0.,0.));
#455=DIRECTION('',(0.,0.,1.));
#456=DIRECTION('center_axis',(1.,0.,0.));
#457=DIRECTION('ref_axis',(0.,0.,-1.));
#458=DIRECTION('center_axis',(1.,0.,0.));
#459=DIRECTION('ref_axis',(0.,0.,-1.));
#460=DIRECTION('center_axis',(1.,0.,0.));
#461=DIRECTION('ref_axis',(0.,-0.707106781186547,-0.707106781186548));
#462=DIRECTION('',(0.,0.,-1.));
#463=DIRECTION('center_axis',(1.,0.,0.));
#464=DIRECTION('ref_axis',(0.,-0.707106781186547,0.707106781186548));
#465=DIRECTION('',(0.,-1.,0.));
#466=DIRECTION('center_axis',(1.,0.,0.));
#467=DIRECTION('ref_axis',(0.,0.707106781186547,0.707106781186548));
#468=DIRECTION('',(0.,0.,1.));
#469=DIRECTION('center_axis',(1.,0.,0.));
#470=DIRECTION('ref_axis',(0.,0.707106781186547,-0.707106781186548));
#471=DIRECTION('',(0.,1.,0.));
#472=DIRECTION('center_axis',(-1.,0.,0.));
#473=DIRECTION('ref_axis',(0.,0.707106781186547,0.707106781186548));
#474=DIRECTION('',(1.,0.,0.));
#475=DIRECTION('center_axis',(-1.,0.,0.));
#476=DIRECTION('ref_axis',(0.,0.707106781186547,0.707106781186548));
#477=DIRECTION('',(-1.,0.,0.));
#478=DIRECTION('center_axis',(0.,0.,1.));
#479=DIRECTION('ref_axis',(1.,0.,0.));
#480=DIRECTION('',(-1.,0.,0.));
#481=DIRECTION('',(0.,1.,0.));
#482=DIRECTION('center_axis',(1.,0.,0.));
#483=DIRECTION('ref_axis',(0.,-0.707106781186547,0.707106781186548));
#484=DIRECTION('',(1.,0.,0.));
#485=DIRECTION('center_axis',(-1.,0.,0.));
#486=DIRECTION('ref_axis',(0.,-0.707106781186547,0.707106781186548));
#487=DIRECTION('center_axis',(0.,-1.,0.));
#488=DIRECTION('ref_axis',(1.,0.,0.));
#489=DIRECTION('',(-1.,0.,0.));
#490=DIRECTION('',(0.,0.,1.));
#491=DIRECTION('center_axis',(1.,0.,0.));
#492=DIRECTION('ref_axis',(0.,0.707106781186547,-0.707106781186548));
#493=DIRECTION('',(1.,0.,0.));
#494=DIRECTION('center_axis',(-1.,0.,0.));
#495=DIRECTION('ref_axis',(0.,0.707106781186547,-0.707106781186548));
#496=DIRECTION('',(-1.,0.,0.));
#497=DIRECTION('center_axis',(1.,0.,0.));
#498=DIRECTION('ref_axis',(0.,1.,0.));
#499=DIRECTION('',(0.,0.,-1.));
#500=DIRECTION('center_axis',(-1.,0.,0.));
#501=DIRECTION('ref_axis',(0.,-0.707106781186547,-0.707106781186548));
#502=DIRECTION('',(0.,-1.,0.));
#503=DIRECTION('center_axis',(0.,1.,0.));
#504=DIRECTION('ref_axis',(-1.,0.,0.));
#505=DIRECTION('center_axis',(-1.,0.,0.));
#506=DIRECTION('ref_axis',(0.,-0.707106781186547,-0.707106781186548));
#507=DIRECTION('',(1.,0.,0.));
#508=DIRECTION('center_axis',(0.,0.,-1.));
#509=DIRECTION('ref_axis',(-1.,0.,0.));
#510=CARTESIAN_POINT('',(0.,0.,0.));
#511=CARTESIAN_POINT('Origin',(-24.,15.,0.));
#512=CARTESIAN_POINT('',(-24.,13.,-3.5));
#513=CARTESIAN_POINT('',(-24.,15.,-1.5));
#514=CARTESIAN_POINT('Origin',(-24.,13.,-1.5));
#515=CARTESIAN_POINT('',(-24.,-13.,-3.5));
#516=CARTESIAN_POINT('',(-24.,-15.,-3.5));
#517=CARTESIAN_POINT('',(-24.,-15.,-1.5));
#518=CARTESIAN_POINT('Origin',(-24.,-13.,-1.5));
#519=CARTESIAN_POINT('',(-24.,-15.,1.5));
#520=CARTESIAN_POINT('',(-24.,-15.,0.));
#521=CARTESIAN_POINT('',(-24.,-13.,3.5));
#522=CARTESIAN_POINT('Origin',(-24.,-13.,1.5));
#523=CARTESIAN_POINT('',(-24.,13.,3.5));
#524=CARTESIAN_POINT('',(-24.,-15.,3.5));
#525=CARTESIAN_POINT('',(-24.,15.,1.5));
#526=CARTESIAN_POINT('Origin',(-24.,13.,1.5));
#527=CARTESIAN_POINT('',(-24.,15.,0.));
#528=CARTESIAN_POINT('Origin',(0.,0.,3.5));
#529=CARTESIAN_POINT('',(16.5,13.,3.5));
#530=CARTESIAN_POINT('',(16.5,-13.,3.5));
#531=CARTESIAN_POINT('',(16.5,0.,3.5));
#532=CARTESIAN_POINT('',(12.,13.,3.5));
#533=CARTESIAN_POINT('',(-12.,-13.,3.5));
#534=CARTESIAN_POINT('Origin',(-12.,-13.,1.5));
#535=CARTESIAN_POINT('',(16.5,-15.,1.5));
#536=CARTESIAN_POINT('Origin',(16.5,-13.,1.5));
#537=CARTESIAN_POINT('',(-12.,-15.,1.5));
#538=CARTESIAN_POINT('Origin',(-24.,-15.,0.));
#539=CARTESIAN_POINT('',(16.5,-15.,-1.5));
#540=CARTESIAN_POINT('',(16.5,-15.,0.));
#541=CARTESIAN_POINT('',(-12.,-15.,-1.5));
#542=CARTESIAN_POINT('Origin',(12.,13.,1.5));
#543=CARTESIAN_POINT('',(16.5,15.,1.5));
#544=CARTESIAN_POINT('Origin',(16.5,13.,1.5));
#545=CARTESIAN_POINT('',(12.,15.,1.5));
#546=CARTESIAN_POINT('Origin',(-12.,-13.,-1.5));
#547=CARTESIAN_POINT('',(16.5,-13.,-3.5));
#548=CARTESIAN_POINT('Origin',(16.5,-13.,-1.5));
#549=CARTESIAN_POINT('',(-12.,-13.,-3.5));
#550=CARTESIAN_POINT('Origin',(0.,0.,-3.5));
#551=CARTESIAN_POINT('',(16.5,13.,-3.5));
#552=CARTESIAN_POINT('',(16.5,0.,-3.5));
#553=CARTESIAN_POINT('',(12.,13.,-3.5));
#554=CARTESIAN_POINT('Origin',(12.,13.,-1.5));
#555=CARTESIAN_POINT('',(16.5,15.,-1.5));
#556=CARTESIAN_POINT('Origin',(16.5,13.,-1.5));
#557=CARTESIAN_POINT('',(12.,15.,-1.5));
#558=CARTESIAN_POINT('Origin',(24.,15.,0.));
#559=CARTESIAN_POINT('',(16.5,15.,0.));
#560=CARTESIAN_POINT('Origin',(16.5,0.,0.));
#561=CARTESIAN_POINT('Origin',(16.5,0.,0.));
#562=CARTESIAN_POINT('',(16.5,-15.,-1.5));
#563=CARTESIAN_POINT('',(16.5,-13.,-3.5));
#564=CARTESIAN_POINT('Origin',(16.5,-13.,-1.5));
#565=CARTESIAN_POINT('',(16.5,-15.,1.5));
#566=CARTESIAN_POINT('',(16.5,-15.,0.));
#567=CARTESIAN_POINT('',(16.5,-13.,3.5));
#568=CARTESIAN_POINT('Origin',(16.5,-13.,1.5));
#569=CARTESIAN_POINT('',(16.5,13.,3.5));
#570=CARTESIAN_POINT('',(16.5,0.,3.5));
#571=CARTESIAN_POINT('',(16.5,15.,1.5));
#572=CARTESIAN_POINT('Origin',(16.5,13.,1.5));
#573=CARTESIAN_POINT('',(16.5,15.,-1.5));
#574=CARTESIAN_POINT('',(16.5,15.,0.));
#575=CARTESIAN_POINT('',(16.5,13.,-3.5));
#576=CARTESIAN_POINT('Origin',(16.5,13.,-1.5));
#577=CARTESIAN_POINT('',(16.5,0.,-3.5));
#578=CARTESIAN_POINT('Origin',(12.,13.,1.5));
#579=CARTESIAN_POINT('',(24.,13.,3.5));
#580=CARTESIAN_POINT('',(12.,13.,3.5));
#581=CARTESIAN_POINT('',(24.,15.,1.5));
#582=CARTESIAN_POINT('Origin',(24.,13.,1.5));
#583=CARTESIAN_POINT('',(12.,15.,1.5));
#584=CARTESIAN_POINT('Origin',(0.,0.,3.5));
#585=CARTESIAN_POINT('',(24.,-13.,3.5));
#586=CARTESIAN_POINT('',(-12.,-13.,3.5));
#587=CARTESIAN_POINT('',(24.,15.,3.5));
#588=CARTESIAN_POINT('Origin',(-12.,-13.,1.5));
#589=CARTESIAN_POINT('',(24.,-15.,1.5));
#590=CARTESIAN_POINT('',(-12.,-15.,1.5));
#591=CARTESIAN_POINT('Origin',(24.,-13.,1.5));
#592=CARTESIAN_POINT('Origin',(-24.,-15.,0.));
#593=CARTESIAN_POINT('',(24.,-15.,-1.5));
#594=CARTESIAN_POINT('',(-12.,-15.,-1.5));
#595=CARTESIAN_POINT('',(24.,-15.,0.));
#596=CARTESIAN_POINT('Origin',(12.,13.,-1.5));
#597=CARTESIAN_POINT('',(24.,15.,-1.5));
#598=CARTESIAN_POINT('',(12.,15.,-1.5));
#599=CARTESIAN_POINT('',(24.,13.,-3.5));
#600=CARTESIAN_POINT('Origin',(24.,13.,-1.5));
#601=CARTESIAN_POINT('',(12.,13.,-3.5));
#602=CARTESIAN_POINT('Origin',(24.,-15.,0.));
#603=CARTESIAN_POINT('',(24.,15.,0.));
#604=CARTESIAN_POINT('',(24.,-13.,-3.5));
#605=CARTESIAN_POINT('Origin',(24.,-13.,-1.5));
#606=CARTESIAN_POINT('',(24.,15.,-3.5));
#607=CARTESIAN_POINT('Origin',(24.,15.,0.));
#608=CARTESIAN_POINT('Origin',(-12.,-13.,-1.5));
#609=CARTESIAN_POINT('',(-12.,-13.,-3.5));
#610=CARTESIAN_POINT('Origin',(0.,0.,-3.5));
#611=UNCERTAINTY_MEASURE_WITH_UNIT(LENGTH_MEASURE(0.01),#615,
'DISTANCE_ACCURACY_VALUE',
'Maximum model space distance between geometric entities at asserted c
onnectivities');
#612=UNCERTAINTY_MEASURE_WITH_UNIT(LENGTH_MEASURE(0.01),#615,
'DISTANCE_ACCURACY_VALUE',
'Maximum model space distance between geometric entities at asserted c
onnectivities');
#613=(
GEOMETRIC_REPRESENTATION_CONTEXT(3)
GLOBAL_UNCERTAINTY_ASSIGNED_CONTEXT((#611))
GLOBAL_UNIT_ASSIGNED_CONTEXT((#615,#617,#618))
REPRESENTATION_CONTEXT('','3D')
);
#614=(
GEOMETRIC_REPRESENTATION_CONTEXT(3)
GLOBAL_UNCERTAINTY_ASSIGNED_CONTEXT((#612))
GLOBAL_UNIT_ASSIGNED_CONTEXT((#615,#617,#618))
REPRESENTATION_CONTEXT('','3D')
);
#615=(
LENGTH_UNIT()
NAMED_UNIT(*)
SI_UNIT(.MILLI.,.METRE.)
);
#616=(
LENGTH_UNIT()
NAMED_UNIT(*)
SI_UNIT($,.METRE.)
);
#617=(
NAMED_UNIT(*)
PLANE_ANGLE_UNIT()
SI_UNIT($,.RADIAN.)
);
#618=(
NAMED_UNIT(*)
SI_UNIT($,.STERADIAN.)
SOLID_ANGLE_UNIT()
);
#619=SHAPE_DEFINITION_REPRESENTATION(#620,#621);
#620=PRODUCT_DEFINITION_SHAPE('',$,#623);
#621=SHAPE_REPRESENTATION('',(#367),#613);
#622=PRODUCT_DEFINITION_CONTEXT('part definition',#627,'design');
#623=PRODUCT_DEFINITION('2026-04-25-16-34-37-618',
'703048 3.7V 1200mAh Battery',#624,#622);
#624=PRODUCT_DEFINITION_FORMATION('',$,#629);
#625=PRODUCT_RELATED_PRODUCT_CATEGORY('703048 3.7V 1200mAh Battery',
'703048 3.7V 1200mAh Battery',(#629));
#626=APPLICATION_PROTOCOL_DEFINITION('international standard',
'automotive_design',2009,#627);
#627=APPLICATION_CONTEXT(
'Core Data for Automotive Mechanical Design Process');
#628=PRODUCT_CONTEXT('part definition',#627,'mechanical');
#629=PRODUCT('2026-04-25-16-34-37-618','703048 3.7V 1200mAh Battery',$,
(#628));
#630=PRESENTATION_STYLE_ASSIGNMENT((#633));
#631=PRESENTATION_STYLE_ASSIGNMENT((#634));
#632=PRESENTATION_STYLE_ASSIGNMENT((#635));
#633=SURFACE_STYLE_USAGE(.BOTH.,#636);
#634=SURFACE_STYLE_USAGE(.BOTH.,#637);
#635=SURFACE_STYLE_USAGE(.BOTH.,#638);
#636=SURFACE_SIDE_STYLE('',(#639));
#637=SURFACE_SIDE_STYLE('',(#640));
#638=SURFACE_SIDE_STYLE('',(#641));
#639=SURFACE_STYLE_FILL_AREA(#642);
#640=SURFACE_STYLE_FILL_AREA(#643);
#641=SURFACE_STYLE_FILL_AREA(#644);
#642=FILL_AREA_STYLE('Steel - Satin',(#645));
#643=FILL_AREA_STYLE('Silver - Satin',(#646));
#644=FILL_AREA_STYLE('Plastic - Glossy (Yellow)',(#647));
#645=FILL_AREA_STYLE_COLOUR('Steel - Satin',#648);
#646=FILL_AREA_STYLE_COLOUR('Silver - Satin',#649);
#647=FILL_AREA_STYLE_COLOUR('Plastic - Glossy (Yellow)',#650);
#648=COLOUR_RGB('Steel - Satin',0.627450980392157,0.627450980392157,0.627450980392157);
#649=COLOUR_RGB('Silver - Satin',0.984313725490196,0.980392156862745,0.96078431372549);
#650=COLOUR_RGB('Plastic - Glossy (Yellow)',0.909803921568627,0.67843137254902,
0.137254901960784);
ENDSEC;
END-ISO-10303-21;
